2015002_C4_04_grf
version=1
nRows=37
nColumns=19
inDegrees=no
endheader
time	ground_force_1_vx	ground_force_1_vy	ground_force_1_vz	ground_force_1_px	ground_force_1_py	ground_force_1_pz	ground_force_1_mx	ground_force_1_my	ground_force_1_mz	ground_force_2_vx	ground_force_2_vy	ground_force_2_vz	ground_force_2_px	ground_force_2_py	ground_force_2_pz	ground_force_2_mx	ground_force_2_my	ground_force_2_mz
      0.42000000	     -3.51799163	    612.15808243	     31.54298365	      0.17100068	      0.00000000	     -0.35160284	      0.00000000	     -0.11506275	     -0.00000000	      0.00000000	      0.00000000	      0.00000000	      0.00000000	      0.00000000	      0.00000000	      0.00000000	      0.00000000	      0.00000000
      0.42100000	     -3.31039703	    613.50901052	     31.79748803	      0.17158955	      0.00000000	     -0.35172557	      0.00000000	     -0.10428534	      0.00000000	      0.00000000	      0.00000000	      0.00000000	      0.00000000	      0.00000000	      0.00000000	      0.00000000	      0.00000000	      0.00000000
      0.42200000	     -3.10016423	    614.87281322	     32.05262125	      0.17218084	      0.00000000	     -0.35184898	      0.00000000	     -0.09384252	     -0.00000000	      0.00000000	      0.00000000	      0.00000000	      0.00000000	      0.00000000	      0.00000000	      0.00000000	      0.00000000	      0.00000000
      0.42300000	     -2.88645283	    616.25203863	     32.30865300	      0.17277507	      0.00000000	     -0.35197326	      0.00000000	     -0.08381169	      0.00000000	      0.00000000	      0.00000000	      0.00000000	      0.00000000	      0.00000000	      0.00000000	      0.00000000	      0.00000000	      0.00000000
      0.42400000	     -2.66981660	    617.64326692	     32.56550729	      0.17337159	      0.00000000	     -0.35209817	      0.00000000	     -0.07410424	      0.00000000	      0.00000000	      0.00000000	      0.00000000	      0.00000000	      0.00000000	      0.00000000	      0.00000000	      0.00000000	      0.00000000
      0.42500000	     -2.44935323	    619.04897913	     32.82350451	      0.17397090	      0.00000000	     -0.35222383	      0.00000000	     -0.06479045	      0.00000000	      0.00000000	      0.00000000	      0.00000000	      0.00000000	      0.00000000	      0.00000000	      0.00000000	      0.00000000	      0.00000000
      0.42600000	     -2.22569378	    620.46568841	     33.08252394	      0.17457232	      0.00000000	     -0.35235009	      0.00000000	     -0.05578443	      0.00000000	      0.00000000	      0.00000000	      0.00000000	      0.00000000	      0.00000000	      0.00000000	      0.00000000	      0.00000000	      0.00000000
      0.42700000	     -1.99786865	    621.89584225	     33.34296197	      0.17517634	      0.00000000	     -0.35247703	      0.00000000	     -0.04715098	      0.00000000	      0.00000000	      0.00000000	      0.00000000	      0.00000000	      0.00000000	      0.00000000	      0.00000000	      0.00000000	      0.00000000
      0.42800000	     -1.76656828	    623.33625555	     33.60465765	      0.17578233	      0.00000000	     -0.35260446	      0.00000000	     -0.03880673	      0.00000000	      0.00000000	      0.00000000	      0.00000000	      0.00000000	      0.00000000	      0.00000000	      0.00000000	      0.00000000	      0.00000000
      0.42900000	     -1.53073377	    624.78920817	     33.86808783	      0.17639069	      0.00000000	     -0.35273244	      0.00000000	     -0.03081103	      0.00000000	      0.00000000	      0.00000000	      0.00000000	      0.00000000	      0.00000000	      0.00000000	      0.00000000	      0.00000000	      0.00000000
      0.43000000	     -1.29111367	    626.25174969	     34.13302600	      0.17700087	      0.00000000	     -0.35286081	      0.00000000	     -0.02308360	      0.00000000	      0.00000000	      0.00000000	      0.00000000	      0.00000000	      0.00000000	      0.00000000	      0.00000000	      0.00000000	      0.00000000
      0.43100000	     -1.04656193	    627.72599235	     34.39999521	      0.17761320	      0.00000000	     -0.35298959	      0.00000000	     -0.01567884	      0.00000000	      0.00000000	      0.00000000	      0.00000000	      0.00000000	      0.00000000	      0.00000000	      0.00000000	      0.00000000	      0.00000000
      0.43200000	     -0.79790520	    629.20928746	     34.66870487	      0.17822715	      0.00000000	     -0.35311866	      0.00000000	     -0.00852282	      0.00000000	      0.00000000	      0.00000000	      0.00000000	      0.00000000	      0.00000000	      0.00000000	      0.00000000	      0.00000000	      0.00000000
      0.43300000	     -0.54391637	    630.70351258	     34.93971825	      0.17884296	      0.00000000	     -0.35324802	      0.00000000	     -0.00166574	     -0.00000000	      0.00000000	      0.00000000	      0.00000000	      0.00000000	      0.00000000	      0.00000000	      0.00000000	      0.00000000	      0.00000000
      0.43400000	     -0.28550177	    632.20625371	     35.21267474	      0.17946013	      0.00000000	     -0.35337754	      0.00000000	      0.00496150	      0.00000000	      0.00000000	      0.00000000	      0.00000000	      0.00000000	      0.00000000	      0.00000000	      0.00000000	      0.00000000	      0.00000000
      0.43500000	     -0.02135307	    633.71945545	     35.48817337	      0.18007884	      0.00000000	     -0.35350719	      0.00000000	      0.01130976	      0.00000000	      0.00000000	      0.00000000	      0.00000000	      0.00000000	      0.00000000	      0.00000000	      0.00000000	      0.00000000	      0.00000000
      0.43600000	      0.24755002	    635.24083793	     35.76579094	      0.18069861	      0.00000000	     -0.35363690	      0.00000000	      0.01744108	      0.00000000	      0.00000000	      0.00000000	      0.00000000	      0.00000000	      0.00000000	      0.00000000	      0.00000000	      0.00000000	      0.00000000
      0.43700000	      0.52261920	    636.77231222	     36.04614735	      0.18131948	      0.00000000	     -0.35376660	      0.00000000	      0.02330994	      0.00000000	      0.00000000	      0.00000000	      0.00000000	      0.00000000	      0.00000000	      0.00000000	      0.00000000	      0.00000000	      0.00000000
      0.43800000	      0.80281193	    638.31176609	     36.32875383	      0.18194105	      0.00000000	     -0.35389623	      0.00000000	      0.02897776	      0.00000000	      0.00000000	      0.00000000	      0.00000000	      0.00000000	      0.00000000	      0.00000000	      0.00000000	      0.00000000	      0.00000000
      0.43900000	      1.08966650	    639.86131176	     36.61423475	      0.18256326	      0.00000000	     -0.35402568	      0.00000000	      0.03440598	      0.00000000	      0.00000000	      0.00000000	      0.00000000	      0.00000000	      0.00000000	      0.00000000	      0.00000000	      0.00000000	      0.00000000
      0.44000000	      1.38207281	    641.41883701	     36.90205216	      0.18318577	      0.00000000	     -0.35415492	      0.00000000	      0.03965290	      0.00000000	      0.00000000	      0.00000000	      0.00000000	      0.00000000	      0.00000000	      0.00000000	      0.00000000	      0.00000000	      0.00000000
      0.44100000	      1.68171973	    642.98655465	     37.19281852	      0.18380840	      0.00000000	     -0.35428380	      0.00000000	      0.04468727	      0.00000000	      0.00000000	      0.00000000	      0.00000000	      0.00000000	      0.00000000	      0.00000000	      0.00000000	      0.00000000	      0.00000000
      0.44200000	      1.98741234	    644.56245303	     37.48596013	      0.18443089	      0.00000000	     -0.35441236	      0.00000000	      0.04956020	      0.00000000	      0.00000000	      0.00000000	      0.00000000	      0.00000000	      0.00000000	      0.00000000	      0.00000000	      0.00000000	      0.00000000
      0.44300000	      2.30099249	    646.14874497	     37.78207302	      0.18505289	      0.00000000	     -0.35454040	      0.00000000	      0.05424165	      0.00000000	      0.00000000	      0.00000000	      0.00000000	      0.00000000	      0.00000000	      0.00000000	      0.00000000	      0.00000000	      0.00000000
      0.44400000	      2.62115523	    647.74355292	     38.08056116	      0.18567425	      0.00000000	     -0.35466799	      0.00000000	      0.05877631	      0.00000000	      0.00000000	      0.00000000	      0.00000000	      0.00000000	      0.00000000	      0.00000000	      0.00000000	      0.00000000	      0.00000000
      0.44500000	      2.94989813	    649.34932441	     38.38200271	      0.18629451	      0.00000000	     -0.35479495	      0.00000000	      0.06313530	     -0.00000000	      0.00000000	      0.00000000	      0.00000000	      0.00000000	      0.00000000	      0.00000000	      0.00000000	      0.00000000	      0.00000000
      0.44600000	      3.28579708	    650.96421540	     38.68578374	      0.18691361	      0.00000000	     -0.35492131	      0.00000000	      0.06735816	      0.00000000	      0.00000000	      0.00000000	      0.00000000	      0.00000000	      0.00000000	      0.00000000	      0.00000000	      0.00000000	      0.00000000
      0.44700000	      3.63102113	    652.59080753	     38.99245113	      0.18753089	      0.00000000	     -0.35504689	      0.00000000	      0.07141529	     -0.00000000	      0.00000000	      0.00000000	      0.00000000	      0.00000000	      0.00000000	      0.00000000	      0.00000000	      0.00000000	      0.00000000
      0.44800000	      3.98401869	    654.22718972	     39.30138648	      0.18814644	      0.00000000	     -0.35517177	      0.00000000	      0.07534262	      0.00000000	      0.00000000	      0.00000000	      0.00000000	      0.00000000	      0.00000000	      0.00000000	      0.00000000	      0.00000000	      0.00000000
      0.44900000	      4.34713019	    655.87617829	     39.61310834	      0.18875943	      0.00000000	     -0.35529572	      0.00000000	      0.07910692	      0.00000000	      0.00000000	      0.00000000	      0.00000000	      0.00000000	      0.00000000	      0.00000000	      0.00000000	      0.00000000	      0.00000000
      0.45000000	      4.71865479	    657.53569454	     39.92699087	      0.18937003	      0.00000000	     -0.35541886	      0.00000000	      0.08273842	      0.00000000	      0.00000000	      0.00000000	      0.00000000	      0.00000000	      0.00000000	      0.00000000	      0.00000000	      0.00000000	      0.00000000
      0.45100000	      5.10111009	    659.20889005	     40.24348110	      0.18997723	      0.00000000	     -0.35554090	      0.00000000	      0.08619877	      0.00000000	      0.00000000	      0.00000000	      0.00000000	      0.00000000	      0.00000000	      0.00000000	      0.00000000	      0.00000000	      0.00000000
      0.45200000	      5.49265137	    660.89348495	     40.56196809	      0.19058134	      0.00000000	     -0.35566199	      0.00000000	      0.08951698	     -0.00000000	      0.00000000	      0.00000000	      0.00000000	      0.00000000	      0.00000000	      0.00000000	      0.00000000	      0.00000000	      0.00000000
      0.45300000	      5.89599228	    662.59286553	     40.88282287	      0.19118112	      0.00000000	     -0.35578178	      0.00000000	      0.09265015	      0.00000000	      0.00000000	      0.00000000	      0.00000000	      0.00000000	      0.00000000	      0.00000000	      0.00000000	      0.00000000	      0.00000000
      0.45400000	      6.30913302	    664.30465132	     41.20546281	      0.19177705	      0.00000000	     -0.35590044	      0.00000000	      0.09562878	      0.00000000	      0.00000000	      0.00000000	      0.00000000	      0.00000000	      0.00000000	      0.00000000	      0.00000000	      0.00000000	      0.00000000
      0.45500000	      6.73497841	    666.03249684	     41.53016508	      0.19236766	      0.00000000	     -0.35601759	      0.00000000	      0.09840491	      0.00000000	      0.00000000	      0.00000000	      0.00000000	      0.00000000	      0.00000000	      0.00000000	      0.00000000	      0.00000000	      0.00000000
      0.45600000	      7.17135053	    667.77375340	     41.85638428	      0.19295363	      0.00000000	     -0.35613346	      0.00000000	      0.10101235	      0.00000000	      0.00000000	      0.00000000	      0.00000000	      0.00000000	      0.00000000	      0.00000000	      0.00000000	      0.00000000	      0.00000000
